<?xml version="1.0" encoding="UTF-8"?>
<svg version="1.1" xmlns="http://www.w3.org/2000/svg" width="127" height="117">
<path d="M0 0 C41.91 0 83.82 0 127 0 C127 38.61 127 77.22 127 117 C85.09 117 43.18 117 0 117 C0 78.39 0 39.78 0 0 Z " fill="#FDFEFE" transform="translate(0,0)"/>
<path d="M0 0 C0.66 0 1.32 0 2 0 C3.31274414 1.49707031 3.31274414 1.49707031 4.78515625 3.578125 C5.31560547 4.32707031 5.84605469 5.07601563 6.39257812 5.84765625 C6.94365234 6.64042969 7.49472656 7.43320312 8.0625 8.25 C8.61744141 9.02730469 9.17238281 9.80460937 9.74414062 10.60546875 C14.63750912 17.57896587 14.63750912 17.57896587 15 21 C14.25 22.81738281 14.25 22.81738281 13 24.703125 C12.53198975 25.4252417 12.06397949 26.1473584 11.58178711 26.89135742 C10.79880249 28.0588855 10.79880249 28.0588855 10 29.25 C8.89560642 30.93780259 7.79282276 32.62665939 6.69140625 34.31640625 C6.09730957 35.22277832 5.50321289 36.12915039 4.89111328 37.06298828 C2.86509929 40.20950884 0.90940196 43.39238456 -1.03515625 46.58984375 C-1.70482422 47.68586914 -2.37449219 48.78189453 -3.06445312 49.91113281 C-4.38669365 52.07932292 -5.70191875 54.25180834 -7.00976562 56.42871094 C-7.61626953 57.41516602 -8.22277344 58.40162109 -8.84765625 59.41796875 C-9.38398682 60.30250732 -9.92031738 61.1870459 -10.47290039 62.09838867 C-10.97684326 62.72592041 -11.48078613 63.35345215 -12 64 C-12.99 64 -13.98 64 -15 64 C-17.47025966 61.2097564 -19.33018684 57.96169043 -21.3125 54.8125 C-21.88806641 53.94818359 -22.46363281 53.08386719 -23.05664062 52.19335938 C-23.59095703 51.35224609 -24.12527344 50.51113281 -24.67578125 49.64453125 C-25.16989502 48.87471924 -25.66400879 48.10490723 -26.1730957 47.31176758 C-27 45 -27 45 -26.34277344 42.55126953 C-24.91012869 39.82924452 -23.4256298 37.17144865 -21.83984375 34.53515625 C-21.21480957 33.49359375 -20.58977539 32.45203125 -19.94580078 31.37890625 C-18.95169189 29.73728516 -18.95169189 29.73728516 -17.9375 28.0625 C-16.92792236 26.38800781 -16.92792236 26.38800781 -15.89794922 24.6796875 C-2.44939963 2.44939963 -2.44939963 2.44939963 0 0 Z " fill="#0C3A82" transform="translate(58,25)"/>
<path d="M0 0 C1.4884768 0.18770182 2.97619433 0.3824055 4.4609375 0.59765625 C5.75767352 3.13684631 7.04841587 5.67879863 8.3359375 8.22265625 C8.70074219 8.93550781 9.06554687 9.64835937 9.44140625 10.3828125 C11.46094677 14.38517462 13.1690486 18.28682698 14.4609375 22.59765625 C13.4609375 23.59765625 13.4609375 23.59765625 9.49194336 23.71118164 C7.71988143 23.71102245 5.9478149 23.7053241 4.17578125 23.6953125 C3.24496231 23.69389755 2.31414337 23.6924826 1.3551178 23.69102478 C-1.63047441 23.68540797 -4.61599279 23.67285265 -7.6015625 23.66015625 C-9.62044163 23.65514341 -11.63932193 23.65058013 -13.65820312 23.64648438 C-18.61851822 23.63543308 -23.57877782 23.6181572 -28.5390625 23.59765625 C-25.84859343 5.47869961 -18.22696386 -1.70415336 0 0 Z " fill="#0B3980" transform="translate(80.5390625,68.40234375)"/>
</svg>
